<svg version="1.2" xmlns="http://www.w3.org/2000/svg" viewBox="0 0 1000 1000" width="1000" height="1000">
	<title>382861-PCI3P2-315-ai</title>
	<defs>
		<linearGradient id="g1" x2="1" gradientUnits="userSpaceOnUse" gradientTransform="matrix(39.219,22.512,-24.003,41.817,682.877,733.642)">
			<stop offset="0" stop-color="#00fe02"/>
			<stop offset="1" stop-color="#b0b411"/>
		</linearGradient>
		<linearGradient id="g2" x2="1" gradientUnits="userSpaceOnUse" gradientTransform="matrix(.471,-0.393,.402,.481,748.737,768.576)">
			<stop offset="0" stop-color="#42f522"/>
			<stop offset="1" stop-color="#fcff18"/>
		</linearGradient>
		<linearGradient id="g3" x2="1" gradientUnits="userSpaceOnUse" gradientTransform="matrix(247.963,0,0,300.115,421.201,377.064)">
			<stop offset="0" stop-color="#ffffff"/>
			<stop offset="1" stop-color="#000000"/>
		</linearGradient>
		<linearGradient id="g4" x2="1" gradientUnits="userSpaceOnUse" gradientTransform="matrix(-247.963,0,0,-300.115,558.799,566.828)">
			<stop offset="0" stop-color="#ffffff"/>
			<stop offset="1" stop-color="#000000"/>
		</linearGradient>
		<linearGradient id="g5" x2="1" gradientUnits="userSpaceOnUse" gradientTransform="matrix(167.014,0,0,109.428,421.229,417.314)">
			<stop offset="0" stop-color="#ffffff"/>
			<stop offset="1" stop-color="#000000"/>
		</linearGradient>
		<linearGradient id="g6" x2="1" gradientUnits="userSpaceOnUse" gradientTransform="matrix(166.887,0,0,105.434,391.883,420.762)">
			<stop offset="0" stop-color="#000000"/>
			<stop offset="1" stop-color="#ffffff"/>
		</linearGradient>
	</defs>
	<style>
		tspan { white-space:pre } 
		.s0 { fill: url(#g1) } 
		.s1 { fill: url(#g2) } 
		.s2 { opacity: .6;mix-blend-mode: multiply;fill: url(#g3) } 
		.s3 { opacity: .6;mix-blend-mode: multiply;fill: url(#g4) } 
		.s4 { opacity: .6;mix-blend-mode: multiply;fill: url(#g5) } 
		.s5 { opacity: .6;mix-blend-mode: multiply;fill: url(#g6) } 
	</style>
	<g id="BACKGROUND">
	</g>
	<g id="OBJECTS">
		<g id="&lt;Group&gt;">
			<g id="&lt;Group&gt;">
				<text id="" style="transform: matrix(1,0,0,1,524,707)" >
				</text>
			</g>
			<g id="&lt;Group&gt;" style="opacity: .2;mix-blend-mode: multiply">
			</g>
			<g id="&lt;Group&gt;">
				<path id="&lt;Path&gt;" class="s0" d="m518.3 486.3h-57c-38.4 0-69.5-31.2-69.5-69.5 0-38.4 31.1-69.5 69.5-69.5h6.2v-39.9h31.1v39.9h19.7c22.4 0 40.5-18.2 40.5-40.5 0-22.4-18.1-40.5-40.5-40.5h-57c-83 0-150.5 67.5-150.5 150.5 0 82.9 67.5 150.4 150.5 150.4h57c22.4 0 40.5-18.1 40.5-40.5 0-22.3-18.1-40.4-40.5-40.4z"/>
				<path id="&lt;Path&gt;" class="s1" d="m518.7 375.3h-57c-22.4 0-40.5 18.1-40.5 40.5 0 22.3 18.1 40.4 40.5 40.4h57c38.4 0 69.5 31.2 69.5 69.5 0 38.4-31.1 69.6-69.5 69.6h-20.1v39.9h-31.1v-39.9h-5.8c-22.4 0-40.5 18.1-40.5 40.4 0 22.4 18.1 40.5 40.5 40.5h57c83 0 150.5-67.5 150.5-150.5 0-82.9-67.5-150.4-150.5-150.4z"/>
				<path id="&lt;Path&gt;" class="s2" d="m533.8 377.1c65.1 6.9 116 62.2 116 129.1 0 71.7-58.3 130-129.9 130h-21.3-31.1-46.3q0 0.2 0 0.5c0 22.4 18.1 40.5 40.5 40.5h57c83 0 150.5-67.5 150.5-150.5 0-77.8-59.5-142-135.4-149.6z"/>
				<path id="&lt;Path&gt;" class="s3" d="m446.2 566.8c-65.1-6.9-116-62.2-116-129.1 0-71.7 58.3-130 129.9-130h21.3 31.1 46.3q0-0.3 0-0.5c0-22.4-18.1-40.5-40.5-40.5h-57c-83 0-150.5 67.5-150.5 150.5 0 77.8 59.5 142 135.4 149.6z"/>
				<path id="&lt;Path&gt;" class="s4" d="m479.9 417.3h-58.7c0.3 22.1 18.3 39.9 40.5 39.9h57c38.4 0 69.5 31.2 69.5 69.5 0-60.3-48-109.4-108.3-109.4z"/>
				<path id="&lt;Path&gt;" class="s5" d="m518.3 486.3h-57c-37 0-67.3-29.1-69.4-65.5 2.1 58.5 49.2 105.4 108.2 105.4h58.7q-0.1-1.1-0.1-2.1c-0.1-0.6-0.1-1.2-0.1-1.7-0.1-0.8-0.3-1.6-0.4-2.4-0.1-0.5-0.2-1.1-0.3-1.6-0.1-0.8-0.4-1.6-0.6-2.4-0.1-0.5-0.2-1-0.4-1.4-0.2-0.9-0.6-1.7-0.9-2.4-0.1-0.5-0.3-0.9-0.4-1.3q-0.6-1.3-1.2-2.5c-0.2-0.3-0.4-0.7-0.5-1q-0.8-1.4-1.6-2.6-0.2-0.4-0.5-0.7-0.9-1.4-2-2.7-0.1-0.2-0.3-0.4-1.2-1.5-2.5-2.8 0-0.1-0.1-0.1c-7.3-7.3-17.4-11.8-28.6-11.8z"/>
			</g>
		</g>
	</g>
	<g id="DESIGNED BY FREEPIK">
		<g id="&lt;Group&gt;" style="opacity: .4;mix-blend-mode: multiply">
			<g id="&lt;Group&gt;">
			</g>
		</g>
	</g>
</svg>